<svg width="37" height="39" viewBox="0 0 37 39" fill="none" xmlns="http://www.w3.org/2000/svg">
<path d="M7.07715 7.04663H15.9615V18.2072C15.9615 19.7535 14.8299 21.012 13.4233 21.0303L9.72003 21.0782C8.26546 21.0971 7.07715 19.8062 7.07715 18.2072V7.04663Z" stroke="#9D5C00" stroke-width="2.5" stroke-linecap="round" stroke-linejoin="round"/>
<path d="M8.98047 7.0466V1.46631H14.0572V7.0466" stroke="#9D5C00" stroke-width="2.5" stroke-linecap="round" stroke-linejoin="round"/>
<path d="M15.9629 14.1852H19.8275C24.3426 14.1852 28.0028 18.2084 28.0028 23.1714V30.7625L35.0006 30.7623V23.2504C35.0006 14.3099 28.4069 7.06226 20.2733 7.06226H15.9629" stroke="#9D5C00" stroke-width="2.5" stroke-linecap="round" stroke-linejoin="round"/>
<path d="M14.6916 30.7629V32.158C14.6916 34.0182 12.6609 37.7383 9.61484 37.7383H34.9987V30.7629H4.53809" stroke="#9D5C00" stroke-width="2.5" stroke-linecap="round" stroke-linejoin="round"/>
<path d="M10.3291 37.7383H2" stroke="#9D5C00" stroke-width="2.5" stroke-linecap="round" stroke-linejoin="round"/>
</svg>
