<svg width="32" height="29" viewBox="0 0 32 29" fill="none" xmlns="http://www.w3.org/2000/svg">
<path d="M10.4908 1C13.5571 1 16.0429 3.4858 16.0429 6.55215L16.0428 21.6457C16.0428 25.155 13.1978 28 9.68839 28C6.17894 28 3.33398 25.155 3.33398 21.6457C3.33398 21.4659 3.34147 21.2879 3.35612 21.1118C2.03363 19.691 1.19922 16.912 1.19922 14.5933C1.19922 11.4336 2.7485 8.36158 4.97088 7.15401C4.94956 6.95632 4.93862 6.75552 4.93862 6.55215C4.93862 3.4858 7.42442 1 10.4908 1Z" stroke="#9D5C00" stroke-width="2" stroke-linecap="round" stroke-linejoin="round"/>
<path d="M7.90519 10.9277C7.08996 10.7418 5.2426 9.53028 4.96387 7.16835" stroke="#9D5C00" stroke-width="2" stroke-linecap="round" stroke-linejoin="round"/>
<path d="M11.3086 17.1575C14.6385 16.7858 15.9581 13.2716 16.0439 11.8422" stroke="#9D5C00" stroke-width="2" stroke-linecap="round" stroke-linejoin="round"/>
<path d="M5.05556 17.7805C4.22614 18.4354 3.56484 19.9196 3.35059 21.1085" stroke="#9D5C00" stroke-width="2" stroke-linecap="round" stroke-linejoin="round"/>
<path d="M21.5961 1C18.5297 1 16.0439 3.4858 16.0439 6.55215L16.0441 21.6457C16.0441 25.155 18.889 28 22.3985 28C25.9079 28 28.7529 25.155 28.7529 21.6457C28.7529 21.4659 28.7454 21.2879 28.7307 21.1118C30.0531 19.691 30.8875 16.912 30.8875 14.5933C30.8875 11.4336 29.3384 8.36158 27.116 7.15401C27.1373 6.95632 27.1482 6.75552 27.1482 6.55215C27.1482 3.4858 24.6625 1 21.5961 1Z" stroke="#9D5C00" stroke-width="2" stroke-linecap="round" stroke-linejoin="round"/>
<path d="M24.1816 10.9277C24.9969 10.7418 26.8442 9.53028 27.1229 7.16835" stroke="#9D5C00" stroke-width="2" stroke-linecap="round" stroke-linejoin="round"/>
<path d="M20.7783 17.1575C17.4484 16.7858 16.1288 13.2716 16.043 11.8422" stroke="#9D5C00" stroke-width="2" stroke-linecap="round" stroke-linejoin="round"/>
<path d="M27.0312 17.7805C27.8605 18.4354 28.5218 19.9196 28.7362 21.1085" stroke="#9D5C00" stroke-width="2" stroke-linecap="round" stroke-linejoin="round"/>
</svg>
